<svg width="28" height="28" viewBox="0 0 28 28" fill="none" xmlns="http://www.w3.org/2000/svg">
<g clip-path="url(#clip0_177_724)">
<path d="M26.2266 17.454H20.9642V22.6667H26.2266V17.454Z" fill="#4D18CC"/>
<path d="M19.4746 17.454H14.2618V22.6667H19.4746V17.454Z" fill="#4D18CC"/>
<path d="M12.7725 17.454H7.5597V22.6667H12.7725V17.454Z" fill="#202020"/>
<path d="M6.07129 17.454H0.808877V22.6667H6.07129V17.454Z" fill="#202020"/>
<path d="M26.2266 10.752H20.9642V15.9647H26.2266V10.752Z" fill="#4D18CC"/>
<path d="M19.4746 10.752H14.2618V15.9647H19.4746V10.752Z" fill="#202020"/>
<path d="M12.7725 10.752H7.5597V15.9647H12.7725V10.752Z" fill="#4D18CC"/>
<path d="M19.4746 4H14.2618V9.26241H19.4746V4Z" fill="#4D18CC"/>
<path d="M12.7725 4H7.5597V9.26241H12.7725V4Z" fill="#4D18CC"/>
</g>
<defs>
<clipPath id="clip0_177_724">
<rect width="25.3333" height="18.6667" fill="white" transform="matrix(-1 0 0 1 26.333 4)"/>
</clipPath>
</defs>
</svg>
