<svg width="152" height="28" viewBox="0 0 152 28" fill="none" xmlns="http://www.w3.org/2000/svg">
<g clip-path="url(#clip0_177_637)">
<path d="M29.4307 18.4185H23.2912V24.5H29.4307V18.4185Z" fill="#4D18CC"/>
<path d="M21.5537 18.4185H15.4722V24.5H21.5537V18.4185Z" fill="#4D18CC"/>
<path d="M13.7344 18.4185H7.65281V24.5H13.7344V18.4185Z" fill="#202020"/>
<path d="M5.91602 18.4185H-0.223464V24.5H5.91602V18.4185Z" fill="#202020"/>
<path d="M29.4307 10.5994H23.2912V16.6809H29.4307V10.5994Z" fill="#4D18CC"/>
<path d="M21.5537 10.5994H15.4722V16.6809H21.5537V10.5994Z" fill="#202020"/>
<path d="M13.7344 10.5994H7.65281V16.6809H13.7344V10.5994Z" fill="#4D18CC"/>
<path d="M21.5537 2.72217H15.4722V8.86165H21.5537V2.72217Z" fill="#4D18CC"/>
<path d="M13.7344 2.72217H7.65281V8.86165H13.7344V2.72217Z" fill="#4D18CC"/>
</g>
<path d="M36.13 4.27148H44.3604C46.393 4.27148 48.0382 4.90039 49.296 6.1582C50.5629 7.4069 51.1964 9.05208 51.1964 11.0938C51.1964 13.1172 50.5447 14.7533 49.2413 16.002C47.9379 17.2507 46.2426 17.875 44.1553 17.875H40.2589V24H36.13V4.27148ZM40.2589 7.66211V14.5254H43.253C44.447 14.5254 45.3676 14.2337 46.0147 13.6504C46.671 13.0579 46.9991 12.2103 46.9991 11.1074C46.9991 9.99544 46.6755 9.14323 46.0284 8.55078C45.3813 7.95833 44.4607 7.66211 43.2667 7.66211H40.2589ZM58.0061 24H53.8771V4.27148H58.0061V24ZM60.4818 24L66.7845 14.0605L60.5228 4.27148H65.3763L69.4915 11.1758H69.7376L73.8939 4.27148H78.515L72.0208 14.1289L78.4193 24H73.7161L69.4778 17.3145H69.2318L64.9388 24H60.4818ZM110.482 24H106.654V10.8066H106.435L101.418 22.8652H98.6695L93.6382 10.8066H93.4195V24H89.5914V4.27148H94.4586L99.9136 17.5332H100.16L105.628 4.27148H110.482V24ZM113.778 24V8.91992H117.757V24H113.778ZM115.774 6.81445C115.063 6.81445 114.494 6.6276 114.065 6.25391C113.637 5.88021 113.423 5.39714 113.423 4.80469C113.423 4.20312 113.637 3.72005 114.065 3.35547C114.494 2.98177 115.063 2.79492 115.774 2.79492C116.485 2.79492 117.055 2.98177 117.483 3.35547C117.911 3.72005 118.126 4.20312 118.126 4.80469C118.126 5.39714 117.907 5.88021 117.469 6.25391C117.041 6.6276 116.476 6.81445 115.774 6.81445ZM120.67 24V8.91992H124.525V11.3398H124.771C125.127 10.474 125.683 9.79948 126.439 9.31641C127.205 8.83333 128.135 8.5918 129.228 8.5918C130.896 8.5918 132.172 9.08398 133.056 10.0684C133.941 11.0436 134.383 12.4382 134.383 14.252V24H130.404V15.1953C130.404 13.0807 129.479 12.0234 127.629 12.0234C126.708 12.0234 125.979 12.3242 125.441 12.9258C124.913 13.5182 124.648 14.3112 124.648 15.3047V24H120.67ZM142.532 24.2324C140.636 24.2324 139.137 23.5352 138.034 22.1406C136.94 20.7461 136.393 18.8457 136.393 16.4395C136.393 14.0423 136.94 12.151 138.034 10.7656C139.137 9.37109 140.636 8.67383 142.532 8.67383C143.553 8.67383 144.46 8.91081 145.253 9.38477C146.046 9.84961 146.638 10.4967 147.03 11.3262H147.263V3.16406H151.241V24H147.386V21.6348H147.14C146.739 22.446 146.132 23.084 145.321 23.5488C144.51 24.0046 143.58 24.2324 142.532 24.2324ZM146.388 13.2129C145.777 12.4108 144.943 12.0098 143.886 12.0098C142.828 12.0098 141.994 12.4062 141.384 13.1992C140.782 13.9831 140.481 15.0677 140.481 16.4531C140.481 17.8477 140.782 18.9414 141.384 19.7344C141.985 20.5182 142.819 20.9102 143.886 20.9102C144.952 20.9102 145.786 20.5182 146.388 19.7344C146.998 18.9414 147.304 17.8522 147.304 16.4668C147.304 15.0905 146.998 14.0059 146.388 13.2129Z" fill="#202020"/>
<path d="M85.2016 23.7129C84.7641 24.1504 84.1808 24.3691 83.4516 24.3691C82.7224 24.3691 82.1345 24.1504 81.6879 23.7129C81.2504 23.2663 81.0317 22.6921 81.0317 21.9902C81.0317 21.2975 81.2504 20.7324 81.6879 20.2949C82.1345 19.8483 82.7224 19.625 83.4516 19.625C84.1808 19.625 84.7641 19.8438 85.2016 20.2812C85.6482 20.7188 85.8715 21.2884 85.8715 21.9902C85.8715 22.6921 85.6482 23.2663 85.2016 23.7129Z" fill="#4D18CC"/>
<defs>
<clipPath id="clip0_177_637">
<rect width="29.5556" height="21.7778" fill="white" transform="matrix(-1 0 0 1 29.5557 2.72217)"/>
</clipPath>
</defs>
</svg>
